0
SECTION
2
HEADER
9
$INSUNITS
70
1
9
$ACADVER
1
AC1014
9
$HANDSEED
5
FFFF
0
ENDSEC
0
SECTION
2
TABLES
0
TABLE
2
VPORT
5
8
100
AcDbSymbolTable
0
ENDTAB
0
TABLE
2
LTYPE
5
5
100
AcDbSymbolTable
0
LTYPE
5
14
100
AcDbSymbolTableRecord
100
AcDbLinetypeTableRecord
2
BYBLOCK
70
0
0
LTYPE
5
15
100
AcDbSymbolTableRecord
100
AcDbLinetypeTableRecord
2
BYLAYER
70
0
0
ENDTAB
0
TABLE
2
LAYER
5
2
100
AcDbSymbolTable
70
2
0
LAYER
5
50
100
AcDbSymbolTableRecord
100
AcDbLayerTableRecord
2
0
70
0
6
CONTINUOUS
0
ENDTAB
0
TABLE
2
STYLE
5
3
100
AcDbSymbolTable
70
1
0
STYLE
5
11
100
AcDbSymbolTableRecord
100
AcDbTextStyleTableRecord
2
STANDARD
70
0
0
ENDTAB
0
TABLE
2
VIEW
5
6
100
AcDbSymbolTable
70
0
0
ENDTAB
0
TABLE
2
UCS
5
7
100
AcDbSymbolTable
70
0
0
ENDTAB
0
TABLE
2
APPID
5
9
100
AcDbSymbolTable
70
2
0
APPID
5
12
100
AcDbSymbolTableRecord
100
AcDbRegAppTableRecord
2
ACAD
70
0
0
ENDTAB
0
TABLE
2
DIMSTYLE
5
A
100
AcDbSymbolTable
70
1
0
ENDTAB
0
TABLE
2
BLOCK_RECORD
5
1
100
AcDbSymbolTable
70
1
0
BLOCK_RECORD
5
1F
100
AcDbSymbolTableRecord
100
AcDbBlockTableRecord
2
*MODEL_SPACE
0
BLOCK_RECORD
5
1B
100
AcDbSymbolTableRecord
100
AcDbBlockTableRecord
2
*PAPER_SPACE
0
ENDTAB
0
ENDSEC
0
SECTION
2
BLOCKS
0
BLOCK
5
20
100
AcDbEntity
100
AcDbBlockBegin
2
*MODEL_SPACE
0
ENDBLK
5
21
100
AcDbEntity
100
AcDbBlockEnd
0
BLOCK
5
1C
100
AcDbEntity
100
AcDbBlockBegin
2
*PAPER_SPACE
0
ENDBLK
5
1D
100
AcDbEntity
100
AcDbBlockEnd
0
ENDSEC
0
SECTION
2
ENTITIES
0
LWPOLYLINE
5
100
100
AcDbEntity
8
0
100
AcDbPolyline
90
4
70
1
43
0.0
10
-8.0184756912579349
20
3.4781249999999995
10
-7.5184756912579331
20
3.4781249999999995
10
-7.5184756912579331
20
3.6031249999999999
10
-8.0184756912579349
20
3.6031249999999999
0
LWPOLYLINE
5
101
100
AcDbEntity
8
0
100
AcDbPolyline
90
4
70
1
43
0.0
10
-8.0184756912579331
20
1.5531249999999999
10
-8.0184756912579331
20
1.4281249999999999
10
-7.5184756912579331
20
1.4281249999999999
10
-7.5184756912579331
20
1.5531249999999999
0
CIRCLE
5
102
100
AcDbEntity
8
0
100
AcDbCircle
10
-0.49999999999999972
20
2.21
30
0
40
0.044999999999999929
0
LWPOLYLINE
5
103
100
AcDbEntity
8
0
100
AcDbPolyline
90
4
70
1
43
0.0
10
-6.8934756912579322
20
2.3031250000000001
10
-7.0184756912579367
20
2.3031250000000001
10
-7.0184756912579367
20
1.8031249999999999
10
-6.8934756912579322
20
1.8031249999999999
0
LWPOLYLINE
5
104
100
AcDbEntity
8
0
100
AcDbPolyline
90
4
70
1
43
0.0
10
-1.2651650429449552
20
2.7651650429449548
10
-1.0883883476483189
20
2.5883883476483178
10
-0.99999999999999989
20
2.6767766952966365
10
-1.1767766952966363
20
2.8535533905932731
0
LWPOLYLINE
5
105
100
AcDbEntity
8
0
100
AcDbPolyline
90
4
70
1
43
0.0
10
-8.5184756912579331
20
3.4781249999999995
10
-8.5184756912579331
20
3.6031249999999999
10
-9.0184756912579331
20
3.6031249999999999
10
-9.0184756912579331
20
3.4781249999999995
0
LWPOLYLINE
5
106
100
AcDbEntity
8
0
100
AcDbPolyline
90
4
70
1
43
0.0
10
-9.0184756912579331
20
1.5531249999999999
10
-9.0184756912579331
20
1.4281249999999999
10
-8.5184756912579331
20
1.4281249999999999
10
-8.5184756912579331
20
1.5531249999999999
0
CIRCLE
5
107
100
AcDbEntity
8
0
100
AcDbCircle
10
-0.49999999999999989
20
2.7899999999999991
30
0
40
0.045000000000000026
0
LWPOLYLINE
5
108
100
AcDbEntity
8
0
100
AcDbPolyline
90
4
70
1
43
0.0
10
-9.3684756912579328
20
2.7656249999999996
10
-9.4934756912579328
20
2.7656249999999996
10
-9.4934756912579328
20
2.265625
10
-9.3684756912579328
20
2.265625
0
LWPOLYLINE
5
109
100
AcDbEntity
8
0
100
AcDbPolyline
90
4
70
1
43
0.0
10
-1.1767766952966363
20
2.1464466094067256
10
-0.99999999999999989
20
2.3232233047033626
10
-1.088388347648318
20
2.4116116523516813
10
-1.2651650429449552
20
2.2348349570550443
0
LWPOLYLINE
5
110
100
AcDbEntity
8
0
100
AcDbPolyline
90
4
70
1
43
0.0
10
-0.10000000319142986
20
1.7656250000000004
10
-0.10000000319142979
20
2.2656250000000004
10
-0.22500000319142979
20
2.2656250000000004
10
-0.22500000319142979
20
1.7656250000000004
0
LWPOLYLINE
5
111
100
AcDbEntity
8
0
100
AcDbPolyline
90
4
70
1
43
0.0
10
-0.10000000319142986
20
2.765625
10
-0.10000000319142979
20
3.265625
10
-0.22500000319142979
20
3.265625
10
-0.22500000319142979
20
2.765625
0
LWPOLYLINE
5
112
100
AcDbEntity
8
0
100
AcDbPolyline
90
20
70
1
43
0.0
10
-4.4999999999999991
20
-0.15624999999999983
10
-4.4999999999999991
20
0
10
-5.5
20
0
10
-5.5
20
-0.15624999999999983
10
-6.4999999999999991
20
-0.15624999999999983
10
-6.4999999999999991
20
0
10
-9.9999999999999982
20
0
10
-9.9999999999999982
20
4.9999999999999991
10
-6.4999999999999991
20
4.9999999999999991
10
-6.4999999999999991
20
5.1562499999999991
10
-5.4999999999999991
20
5.1562499999999991
10
-5.4999999999999991
20
4.9999999999999991
10
-4.4999999999999991
20
4.9999999999999991
10
-4.4999999999999991
20
5.1562499999999991
10
-3.5
20
5.1562499999999991
10
-3.5
20
4.9999999999999991
10
0
20
4.9999999999999991
10
0
20
0
10
-3.5
20
0
10
-3.5
20
-0.15624999999999983
0
CIRCLE
5
113
100
AcDbEntity
8
0
100
AcDbCircle
10
-9.75
20
2.21
30
0
40
0.045000000000000026
0
CIRCLE
5
114
100
AcDbEntity
8
0
100
AcDbCircle
10
-9.75
20
2.7899999999999991
30
0
40
0.045000000000000026
0
ENDSEC
0
SECTION
2
OBJECTS
0
DICTIONARY
5
C
100
AcDbDictionary
3
ACAD_GROUP
350
D
3
ACAD_MLINESTYLE
350
17
0
DICTIONARY
5
D
100
AcDbDictionary
0
DICTIONARY
5
1A
330
C
100
AcDbDictionary
0
DICTIONARY
5
17
100
AcDbDictionary
0
ENDSEC
0
EOF
