0
SECTION
2
HEADER
9
$INSUNITS
70
1
9
$ACADVER
1
AC1014
9
$HANDSEED
5
FFFF
0
ENDSEC
0
SECTION
2
TABLES
0
TABLE
2
VPORT
5
8
100
AcDbSymbolTable
0
ENDTAB
0
TABLE
2
LTYPE
5
5
100
AcDbSymbolTable
0
LTYPE
5
14
100
AcDbSymbolTableRecord
100
AcDbLinetypeTableRecord
2
BYBLOCK
70
0
0
LTYPE
5
15
100
AcDbSymbolTableRecord
100
AcDbLinetypeTableRecord
2
BYLAYER
70
0
0
ENDTAB
0
TABLE
2
LAYER
5
2
100
AcDbSymbolTable
70
2
0
LAYER
5
50
100
AcDbSymbolTableRecord
100
AcDbLayerTableRecord
2
0
70
0
6
CONTINUOUS
0
ENDTAB
0
TABLE
2
STYLE
5
3
100
AcDbSymbolTable
70
1
0
STYLE
5
11
100
AcDbSymbolTableRecord
100
AcDbTextStyleTableRecord
2
STANDARD
70
0
0
ENDTAB
0
TABLE
2
VIEW
5
6
100
AcDbSymbolTable
70
0
0
ENDTAB
0
TABLE
2
UCS
5
7
100
AcDbSymbolTable
70
0
0
ENDTAB
0
TABLE
2
APPID
5
9
100
AcDbSymbolTable
70
2
0
APPID
5
12
100
AcDbSymbolTableRecord
100
AcDbRegAppTableRecord
2
ACAD
70
0
0
ENDTAB
0
TABLE
2
DIMSTYLE
5
A
100
AcDbSymbolTable
70
1
0
ENDTAB
0
TABLE
2
BLOCK_RECORD
5
1
100
AcDbSymbolTable
70
1
0
BLOCK_RECORD
5
1F
100
AcDbSymbolTableRecord
100
AcDbBlockTableRecord
2
*MODEL_SPACE
0
BLOCK_RECORD
5
1B
100
AcDbSymbolTableRecord
100
AcDbBlockTableRecord
2
*PAPER_SPACE
0
ENDTAB
0
ENDSEC
0
SECTION
2
BLOCKS
0
BLOCK
5
20
100
AcDbEntity
100
AcDbBlockBegin
2
*MODEL_SPACE
0
ENDBLK
5
21
100
AcDbEntity
100
AcDbBlockEnd
0
BLOCK
5
1C
100
AcDbEntity
100
AcDbBlockBegin
2
*PAPER_SPACE
0
ENDBLK
5
1D
100
AcDbEntity
100
AcDbBlockEnd
0
ENDSEC
0
SECTION
2
ENTITIES
0
CIRCLE
5
100
100
AcDbEntity
8
0
100
AcDbCircle
10
2.2340545285895517
20
0.71607630326754568
30
0
40
0.025000000000000109
0
LWPOLYLINE
5
101
100
AcDbEntity
8
0
100
AcDbPolyline
90
4
70
1
43
0.0
10
3.5
20
1.3670167360296003e-16
10
4.4999999999999991
20
3.0596697529039742e-16
10
4.4999999999999991
20
0.12500000000000025
10
3.5
20
0.12500000000000008
0
CIRCLE
5
102
100
AcDbEntity
8
0
100
AcDbCircle
10
2.2340545285895517
20
0.32107630326754605
30
0
40
0.025000000000000109
0
CIRCLE
5
103
100
AcDbEntity
8
0
100
AcDbCircle
10
0.13353388302271799
20
0.3256742524292483
30
0
40
0.024999999999999932
0
LWPOLYLINE
5
104
100
AcDbEntity
8
0
100
AcDbPolyline
90
4
70
1
43
0.0
10
5.4999999999999982
20
4.6998712883000015e-16
10
6.4999999999999973
20
6.3378873453010901e-16
10
6.4999999999999991
20
0.12500000000000058
10
5.4999999999999991
20
0.12500000000000042
0
CIRCLE
5
105
100
AcDbEntity
8
0
100
AcDbCircle
10
7.2364365399351112
20
0.32504812047328685
30
0
40
0.025000000000000456
0
CIRCLE
5
106
100
AcDbEntity
8
0
100
AcDbCircle
10
9.3408964190788328
20
0.3280394154571219
30
0
40
0.025000000000000456
0
CIRCLE
5
107
100
AcDbEntity
8
0
100
AcDbCircle
10
0.13353388302271799
20
0.7206742524292471
30
0
40
0.024999999999999932
0
CIRCLE
5
108
100
AcDbEntity
8
0
100
AcDbCircle
10
7.2364365399351112
20
0.72004812047328592
30
0
40
0.025000000000000456
0
CIRCLE
5
109
100
AcDbEntity
8
0
100
AcDbCircle
10
9.3408964190788328
20
0.72303941545712147
30
0
40
0.025000000000000456
0
LWPOLYLINE
5
110
100
AcDbEntity
8
0
100
AcDbPolyline
90
22
70
1
43
0.0
10
7.5268369899880945
20
-0.24999999999999897
10
2.1308478196416214
20
-0.24999999999999989
42
0.085426310711471748
10
2.0687634363491014
20
0.94360529167355633
42
0.35369829467095221
10
0.32314526682406947
20
0.97617790345424538
42
0.13454165393387937
10
0.29999989787424902
20
-0.29138136568906248
10
0.19999989468281981
20
-0.29138136568906248
42
-0.082762530298219728
10
-0.90000014042290755
20
-0.19138136249763296
10
-0.84381883687405401
20
-0.076691253230341358
10
-0.9000001404229091
20
0.50861865984237531
42
-0.21909349122066499
10
-0.70000013404004569
20
0.90861867260809348
42
-0.099019513592784672
10
1.1999999265971155
20
1.6086186949481001
42
0.071067811865475478
10
2.7999999776599909
20
1.708618698139529
42
-0.062176060207860054
10
4.5000000319142943
20
2.6086187268624026
42
-0.071067811865475297
10
6.4000000925514584
20
2.7086187300538289
42
-0.070302974957917805
10
9.0000001755286334
20
1.9086187045223915
42
0.030532330238198568
10
10.150000212230076
20
1.8086187013309634
42
0.16163516046655854
10
10.350000218612935
20
0.90861867260809559
10
10.350000218612935
20
0.55861866143809136
42
-0.21963684387939347
10
10.050000209038645
20
-0.091381359306201865
42
-0.19982072452390429
10
9.1000001787200713
20
-0.2913813656890622
42
0.093302071439550049
10
9.1746000292183805
20
0.87542277237649824
42
0.50423358982850586
10
7.4226809694520588
20
0.87542277237649835
42
0.15754022955074379
0
ENDSEC
0
SECTION
2
OBJECTS
0
DICTIONARY
5
C
100
AcDbDictionary
3
ACAD_GROUP
350
D
3
ACAD_MLINESTYLE
350
17
0
DICTIONARY
5
D
100
AcDbDictionary
0
DICTIONARY
5
1A
330
C
100
AcDbDictionary
0
DICTIONARY
5
17
100
AcDbDictionary
0
ENDSEC
0
EOF
